<svg width="14" height="14" viewBox="0 0 14 14" fill="none" xmlns="http://www.w3.org/2000/svg">
<path fill-rule="evenodd" clip-rule="evenodd" d="M0.47028 0.0336594C0.409492 0.0498062 0.299145 0.11639 0.225104 0.181573C-0.00994557 0.388532 6.16167e-05 0.255365 6.16167e-05 3.17797C6.16167e-05 5.04984 0.00959224 5.78908 0.0350569 5.89016C0.0830974 6.08103 0.292355 6.29034 0.483176 6.3384C0.584231 6.36387 1.32327 6.3734 3.19464 6.3734C6.1151 6.3734 5.98346 6.38326 6.18944 6.14916C6.25866 6.07054 6.32088 5.96094 6.34041 5.88331C6.38717 5.69765 6.38717 0.673842 6.34041 0.488183C6.32088 0.410548 6.25866 0.300946 6.18944 0.222327C5.98304 -0.0122488 6.11835 -0.00232832 3.17401 0.00115725C1.57298 0.00306389 0.538543 0.0154868 0.47028 0.0336594ZM8.0948 0.0336594C8.03401 0.0498062 7.92366 0.11639 7.84962 0.181573C7.61457 0.388532 7.62458 0.255365 7.62458 3.17797C7.62458 5.04984 7.63411 5.78908 7.65957 5.89016C7.70761 6.08103 7.91687 6.29034 8.10769 6.3384C8.20875 6.36387 8.94779 6.3734 10.8192 6.3734C13.7396 6.3734 13.608 6.38326 13.814 6.14916C13.8832 6.07054 13.9454 5.96094 13.9649 5.88331C14.0117 5.69765 14.0117 0.673842 13.9649 0.488183C13.9454 0.410548 13.8832 0.300946 13.814 0.222327C13.6076 -0.0122488 13.7429 -0.00232832 10.7985 0.00115725C9.19749 0.00306389 8.16306 0.0154868 8.0948 0.0336594ZM5.093 3.18574V5.09238H3.18687H1.28074V3.18574V1.27911H3.18687H5.093V3.18574ZM12.7175 3.18574V5.09238H10.8114H8.90526V3.18574V1.27911H10.8114H12.7175V3.18574ZM0.47028 7.6602C0.409492 7.67635 0.299145 7.74293 0.225104 7.80811C-0.00994557 8.01507 6.16167e-05 7.88191 6.16167e-05 10.8045C6.16167e-05 12.6764 0.00959224 13.4156 0.0350569 13.5167C0.0830974 13.7076 0.292355 13.9169 0.483176 13.9649C0.584231 13.9904 1.32327 13.9999 3.19464 13.9999C6.1151 13.9999 5.98346 14.0098 6.18944 13.7757C6.25866 13.6971 6.32088 13.5875 6.34041 13.5098C6.38717 13.3242 6.38717 8.30038 6.34041 8.11472C6.32088 8.03709 6.25866 7.92749 6.18944 7.84887C5.98304 7.61429 6.11835 7.62421 3.17401 7.6277C1.57298 7.6296 0.538543 7.64203 0.47028 7.6602ZM10.4391 7.6585C9.9497 7.72035 9.43123 7.91542 9.02073 8.19218C8.75771 8.3695 8.39918 8.72401 8.21858 8.98534C7.44627 10.1028 7.44713 11.523 8.22075 12.6424C8.39814 12.899 8.78303 13.2788 9.03339 13.4442C9.97302 14.0649 11.1498 14.1585 12.1361 13.6912C12.845 13.3553 13.3538 12.8476 13.6856 12.145C14.0031 11.4726 14.0694 10.7321 13.8785 9.99303C13.8002 9.68993 13.5408 9.15619 13.3501 8.90565C12.8121 8.19903 12.0241 7.75634 11.1241 7.65523C10.8199 7.62106 10.7322 7.62147 10.4391 7.6585ZM5.093 10.8123V12.7189H3.18687H1.28074V10.8123V8.90565H3.18687H5.093V10.8123ZM11.2135 8.95031C11.7531 9.06328 12.2542 9.45107 12.503 9.94834C12.8825 10.7067 12.7476 11.5513 12.1506 12.1558C11.4112 12.9043 10.2183 12.9039 9.46932 12.1547C8.72075 11.4059 8.71974 10.217 9.46703 9.47332C9.93755 9.00509 10.5701 8.81568 11.2135 8.95031Z" fill="#F48122"/>
</svg>
